{"title":"Mr Men","uid":7642674,"size":1621547727,"categoryP":"video","categoryS":"tv_shows","magnet":"?xt=urn:btih:eedf5c039441bf8f35ea4a512617116d890cb18c&amp;dn=Mr+Men&amp;tr=udp%3A%2F%2Ftracker.openbittorrent.com%3A80&amp;tr=udp%3A%2F%2Fopen.demonii.com%3A1337&amp;tr=udp%3A%2F%2Ftracker.coppersurfer.tk%3A6969&amp;tr=udp%3A%2F%2Fexodus.desync.com%3A6969","seeders":0,"leechers":1,"uploader":"freedomdwarf1","files":78,"time":1347819542,"description":"The Mr Men TV Series\n\nRe-coded &amp; cleaned up a bit.\n\n\n\nFormat                                   : AVI\nFormat/Info                              : Audio Video Interleave\nFile size                                : 50.4 MiB Average\nDuration                                 : 7mn ~ish\nOverall bit rate                         : 945 Kbps\n\n\nVideo\nID                                       : 0\nFormat                                   : MPEG-4 Visual\nFormat settings, BVOP                    : No\nFormat settings, QPel                    : No\nFormat settings, GMC                     : No warppoints\nFormat settings, Matrix                  : Default (H.263)\nCodec ID                                 : DX50\nCodec ID/Hint                            : DivX 5\nDuration                                 : 7mn ~ish\nBit rate                                 : 807 Kbps\nWidth                                    : 576 pixels\nHeight                                   : 432 pixels\nDisplay aspect ratio                     : 4:3\nFrame rate                               : 25.000 fps\nColor space                              : YUV\nChroma subsampling                       : 4:2:0\nBit depth                                : 8 bits\nScan type                                : Interlaced\nScan order                               : Bottom Field First\nCompression mode                         : Lossy\nBits/(Pixel*Frame)                       : 0.130\nStream size                              : 43.1 MiB (85%)\nWriting library                          : DivX 6.8.5 (UTC 2009-08-20)\n\nAudio\nID                                       : 1\nFormat                                   : AC-3\nFormat/Info                              : Audio Coding 3\nMode extension                           : CM (complete main)\nCodec ID                                 : 2000\nDuration                                 : 7mn ~ish\nBit rate mode                            : Constant\nBit rate                                 : 128 Kbps\nChannel(s)                               : 2 channels\nChannel positions                        : Front: L R\nSampling rate                            : 44.1 KHz\nBit depth                                : 16 bits\nCompression mode                         : Lossy\nStream size                              : 6.81 MiB (14%)\nAlignment                                : Aligned on interleaves\nInterleave, duration                     : 40 ms (1.00 video frame)\nInterleave, preload duration             : 522 ms\n\n","torrent":{"xt":"urn:btih:eedf5c039441bf8f35ea4a512617116d890cb18c","amp;dn":"Mr+Men","amp;tr":["udp%3A%2F%2Ftracker.openbittorrent.com%3A80","udp%3A%2F%2Fopen.demonii.com%3A1337","udp%3A%2F%2Ftracker.coppersurfer.tk%3A6969","udp%3A%2F%2Fexodus.desync.com%3A6969"],"infoHash":"eedf5c039441bf8f35ea4a512617116d890cb18c","infoHashBuffer":{"type":"Buffer","data":[238,223,92,3,148,65,191,143,53,234,74,81,38,23,17,109,137,12,177,140]},"announce":[],"urlList":[]}}